<svg xmlns="http://www.w3.org/2000/svg" viewBox="0 0 229.58 164.18"><defs><style>.cls-1{fill:#00a32f;}.cls-2{fill:#fff;}.cls-3{fill:#e7000e;}</style></defs><g id="Ebene_2" data-name="Ebene 2"><g id="bs_4c_pos_small"><path class="cls-1" d="M42.49,132.9h-9v30.61h9V132.9Z"/><path class="cls-1" d="M64.37,132.23c-9.42,0-15.51,6.27-15.51,16,0,9.55,6.22,16,15.47,16s15.51-6.42,15.51-16-6.21-16-15.47-16Zm0,24.71c-5.62,0-6.23-6.11-6.23-8.73,0-2.05.44-8.73,6.15-8.73,5.42,0,6.23,5.54,6.23,8.85,0,2-.44,8.61-6.15,8.61Z"/><path class="cls-1" d="M134.44,159.58c1.45-2.26,1.59-5,1.59-7.65h0V133h-4.34v19.15h0c0,2.06-.1,4.43-1.42,6h0a7.29,7.29,0,0,1-5.65,2.3h0a9,9,0,0,1-3.72-.82h0c-3.42-1.63-3.45-5-3.45-8.17h0v-.25h0V133h-4.29v19.17h0a17.48,17.48,0,0,0,.64,5.59h0c1.63,4.53,6.16,6.39,10.77,6.39h0c3.78,0,7.78-1.26,9.87-4.55h0"/><path class="cls-1" d="M149.19,163.5V132.92h-4.34V163.5Z"/><path class="cls-1" d="M167.79,164.14c5.65,0,10.4-3,10.4-9h0a9.76,9.76,0,0,0-.34-2.48h0a7.32,7.32,0,0,0-3.41-4.39h0a51,51,0,0,0-7.06-3.29h0c-1.31-.58-3.79-1.43-4.72-2.77h0a3,3,0,0,1-.62-1.91h0c0-2.81,2.94-4.21,5.31-4.21h0c3.27,0,5.36,1.76,5.77,5h4.17a10.6,10.6,0,0,0-.75-3.44h0c-1.58-3.67-5.11-5.21-9-5.22h0c-5.15,0-9.78,2.87-9.78,8.42h0c0,4.85,3.85,6.93,7.86,8.64h0c4,1.71,8.11,2.95,8.16,6.46h0c0,3.17-3.27,4.52-5.88,4.53h0c-4.25,0-6.62-2.39-7-6.43H156.7a13.93,13.93,0,0,0,.63,3.58h0c1.59,4.72,5.71,6.52,10.46,6.53h0"/><path class="cls-1" d="M96.19,164.14c5.64,0,10.39-3,10.4-9h0a9.76,9.76,0,0,0-.34-2.48h0a7.33,7.33,0,0,0-3.42-4.39h0a50.91,50.91,0,0,0-7-3.29h0c-1.31-.58-3.8-1.43-4.73-2.77h0a3.08,3.08,0,0,1-.62-1.91h0c0-2.81,2.95-4.21,5.32-4.21h0c3.27,0,5.36,1.76,5.77,5h4.17a10.6,10.6,0,0,0-.75-3.44h0c-1.59-3.67-5.12-5.21-9-5.22h0c-5.16,0-9.78,2.87-9.79,8.42h0c0,4.85,3.85,6.93,7.86,8.64h0c4,1.71,8.12,2.95,8.17,6.46h0c0,3.17-3.27,4.52-5.89,4.53h0c-4.24,0-6.61-2.39-7-6.43H85.1a13.93,13.93,0,0,0,.63,3.58h0c1.59,4.72,5.71,6.52,10.46,6.53h0"/><path class="cls-1" d="M194.44,164.14c5.65,0,10.39-3,10.4-9h0a9.76,9.76,0,0,0-.34-2.48h0a7.36,7.36,0,0,0-3.41-4.39h0A52.22,52.22,0,0,0,194,145h0c-1.31-.58-3.79-1.43-4.73-2.77h0a3.08,3.08,0,0,1-.62-1.91h0c0-2.81,2.95-4.21,5.32-4.21h0c3.27,0,5.36,1.76,5.77,5h4.17a10.6,10.6,0,0,0-.75-3.43h0c-1.59-3.67-5.11-5.21-9-5.22h0c-5.16,0-9.78,2.87-9.78,8.42h0c0,4.85,3.85,6.93,7.86,8.64h0c4,1.71,8.11,2.94,8.16,6.46h0c0,3.17-3.27,4.52-5.88,4.53h0c-4.25,0-6.62-2.39-7-6.44h-4.21a13.93,13.93,0,0,0,.63,3.59h0c1.59,4.72,5.71,6.52,10.46,6.53h0"/><path class="cls-1" d="M229.58,163.56v-3.63h-14V149.52h12.5v-3.64h-12.5v-9.31h13.6V133h-17.9v30.58Z"/><path class="cls-1" d="M22.2,147a6.37,6.37,0,0,0,3.27-5.8A7.6,7.6,0,0,0,24,136.46c-2.73-3.56-7.89-3.56-11.3-3.56H0v30.61H12.7c3.37,0,7.21-.13,10-1.7a8.65,8.65,0,0,0,4.48-7.6A7.45,7.45,0,0,0,22.2,147ZM8.68,139.66h4.61c2.49,0,3.46.66,3.46,2.34,0,2.1-1.47,2.51-4,2.51H8.68ZM14,156.72H8.68v-5.86h5c2.86,0,4.51.49,4.51,3C18.17,155.91,17,156.72,14,156.72Z"/><path class="cls-2" d="M190.53,32.49A103.41,103.41,0,0,0,189.84,21,73.42,73.42,0,0,1,184,26.7c-.42-3.6-.92-6.8-1.32-9-2.9,3-4.33,4.16-6.76,6.5.36,2.26.64,5.18.84,8.37-2.43,1.81-4.87,3.49-7.12,4.9.33,3.9.45,5.53.69,9,.55-.32,3.4-2.08,6.8-4.27,0,3.56,0,7-.13,9.95.72-.42,4.8-2.29,7.52-5a62.32,62.32,0,0,0,.32-10C187.69,35.05,190,33.29,190.53,32.49Z"/><path class="cls-3" d="M68.11,83.65C50,92.79,54,104.3,67.05,111.06c15.39,8,46.52,12.71,61.76,7.35C101.06,119,76.62,108.42,68.11,83.65Z"/><path class="cls-3" d="M190.53,32.13a44.48,44.48,0,0,1-6.05,4.72,61.78,61.78,0,0,1-.3,9.8,29.76,29.76,0,0,1-6.81,4.83c.13-2.89.15-6.35.07-9.89-3.3,2.16-6.05,3.89-6.57,4.2-.22-3.38-.29-4.6-.6-8.36,2.1-1.34,4.43-3,6.79-4.72-.22-3.15-.5-6-.85-8.24,2.31-2.26,3.51-3.33,6.26-6.24.39,2.23.88,5.46,1.28,9.09a72,72,0,0,0,6.14-5.93,100.23,100.23,0,0,0-4.25-20.32L185.26,0l-.55,1s-.18.31-.53.9c-2.31,3.86-12.07,19.29-25.18,29a53.38,53.38,0,0,1,8.6,39.6c1.76-.91,3.59-1.89,5.51-2.93,4-2.33,7.21-4,9.81-6.42s4.53-5.76,6-11.24v0h0a87.3,87.3,0,0,0,1.63-17C190.54,32.56,190.53,32.35,190.53,32.13Z"/><path class="cls-1" d="M67.22,61.08A47.87,47.87,0,1,1,115.09,109,47.87,47.87,0,0,1,67.22,61.08Z"/><path class="cls-2" d="M115.79,19.14S75.46,43.45,102.05,84.86c0,0-15.37-7.75-18.76-30.33-.1-.94-1.2-2.05-2,.22-8,22.81,3.95,51.46,36.5,50.08,32.83-1.4,40.28-39.1,23.37-62.38-.61-1-1.49-1.2-1,.64C143.46,55,138,69,136,72.11c9.82-32.24-18.08-52.7-20.25-53Z"/></g></g></svg>